<?xml version="1.0" encoding="UTF-8" standalone="no"?>
<!DOCTYPE svg PUBLIC "-//W3C//DTD SVG 1.1//EN" "http://www.w3.org/Graphics/SVG/1.1/DTD/svg11.dtd">
<svg width="100%" height="100%" viewBox="0 0 188 21" version="1.1" xmlns="http://www.w3.org/2000/svg" xmlns:xlink="http://www.w3.org/1999/xlink" xml:space="preserve" xmlns:serif="http://www.serif.com/" style="fill-rule:evenodd;clip-rule:evenodd;stroke-linejoin:round;stroke-miterlimit:1.41421;"><g id="bright-logo" serif:id="bright logo"><g transform="matrix(0.466905,0,0,0.466905,-118.78,-62.2821)"><path d="M277.408,134.362l6.943,0l0,10.989l-0.241,5.736c1.247,-1.167 2.626,-2.204 4.136,-3.109c1.509,-0.906 3.29,-1.359 5.343,-1.359c3.18,0 5.494,1.016 6.943,3.049c1.45,2.033 2.174,4.941 2.174,8.725l0,18.596l-6.943,0l0,-17.691c0,-2.455 -0.363,-4.186 -1.087,-5.192c-0.725,-1.006 -1.912,-1.51 -3.563,-1.51c-1.288,0 -2.425,0.312 -3.411,0.936c-0.986,0.624 -2.103,1.54 -3.351,2.748l0,20.709l-6.943,0l0,-42.627Z" style="fill:#fff;fill-rule:nonzero;"/><path d="M309.831,169.019c0,-3.18 1.388,-5.635 4.166,-7.366c2.777,-1.731 7.205,-2.938 13.283,-3.622c0,-0.765 -0.101,-1.5 -0.302,-2.204c-0.201,-0.705 -0.513,-1.329 -0.936,-1.872c-0.422,-0.543 -0.966,-0.966 -1.63,-1.268c-0.664,-0.302 -1.499,-0.453 -2.506,-0.453c-1.489,0 -2.928,0.282 -4.317,0.846c-1.388,0.563 -2.727,1.247 -4.015,2.052l-2.536,-4.649c1.651,-1.046 3.492,-1.952 5.525,-2.717c2.033,-0.765 4.236,-1.147 6.611,-1.147c3.744,0 6.521,1.097 8.333,3.291c1.811,2.193 2.717,5.363 2.717,9.509l0,17.57l-5.676,0l-0.543,-3.26l-0.182,0c-1.328,1.127 -2.747,2.073 -4.256,2.838c-1.51,0.764 -3.15,1.147 -4.921,1.147c-2.616,0 -4.74,-0.795 -6.37,-2.385c-1.63,-1.59 -2.445,-3.693 -2.445,-6.31Zm6.762,-0.543c0,1.328 0.393,2.294 1.177,2.898c0.785,0.604 1.802,0.906 3.05,0.906c1.207,0 2.314,-0.282 3.32,-0.845c1.007,-0.564 2.053,-1.369 3.14,-2.416l0,-6.641c-2.013,0.241 -3.703,0.563 -5.072,0.966c-1.368,0.402 -2.465,0.855 -3.29,1.358c-0.826,0.503 -1.419,1.077 -1.782,1.721c-0.362,0.644 -0.543,1.328 -0.543,2.053Z" style="fill:#fff;fill-rule:nonzero;"/><path d="M340.744,162.197c0,-2.456 0.403,-4.649 1.208,-6.582c0.805,-1.932 1.892,-3.562 3.26,-4.89c1.369,-1.329 2.949,-2.345 4.74,-3.049c1.791,-0.705 3.673,-1.057 5.645,-1.057c1.933,0 3.613,0.332 5.042,0.996c1.429,0.664 2.647,1.48 3.653,2.446l-3.321,4.407c-0.805,-0.684 -1.61,-1.217 -2.415,-1.6c-0.805,-0.382 -1.671,-0.573 -2.596,-0.573c-2.415,0 -4.368,0.895 -5.857,2.686c-1.489,1.792 -2.234,4.197 -2.234,7.216c0,2.978 0.735,5.363 2.204,7.154c1.469,1.792 3.371,2.687 5.706,2.687c1.207,0 2.324,-0.251 3.351,-0.754c1.026,-0.504 1.942,-1.097 2.747,-1.782l2.898,4.408c-1.409,1.248 -2.959,2.194 -4.649,2.838c-1.691,0.644 -3.381,0.966 -5.072,0.966c-2.013,0 -3.894,-0.342 -5.645,-1.027c-1.751,-0.684 -3.271,-1.69 -4.559,-3.019c-1.288,-1.328 -2.294,-2.958 -3.019,-4.89c-0.724,-1.932 -1.087,-4.126 -1.087,-6.581Z" style="fill:#fff;fill-rule:nonzero;"/><path d="M370.571,134.362l6.823,0l0,26.627l0.181,0l10.989,-13.645l7.608,0l-10.144,12.075l11.17,17.57l-7.547,0l-7.608,-12.86l-4.649,5.313l0,7.547l-6.823,0l0,-42.627Z" style="fill:#fff;fill-rule:nonzero;"/><path d="M398.768,162.197c0,-2.415 0.382,-4.589 1.147,-6.521c0.765,-1.932 1.781,-3.563 3.049,-4.891c1.268,-1.328 2.727,-2.355 4.378,-3.079c1.65,-0.725 3.34,-1.087 5.071,-1.087c2.013,0 3.784,0.342 5.314,1.026c1.529,0.685 2.807,1.651 3.834,2.899c1.026,1.247 1.801,2.737 2.324,4.468c0.523,1.73 0.785,3.622 0.785,5.675c0,1.369 -0.101,2.456 -0.302,3.261l-18.838,0c0.322,2.696 1.258,4.769 2.808,6.219c1.55,1.449 3.532,2.173 5.947,2.173c1.288,0 2.486,-0.191 3.593,-0.573c1.107,-0.383 2.203,-0.916 3.29,-1.6l2.355,4.347c-1.409,0.926 -2.979,1.69 -4.71,2.294c-1.73,0.604 -3.542,0.906 -5.434,0.906c-2.052,0 -3.964,-0.352 -5.736,-1.057c-1.771,-0.704 -3.32,-1.721 -4.649,-3.049c-1.328,-1.328 -2.364,-2.948 -3.109,-4.86c-0.745,-1.912 -1.117,-4.096 -1.117,-6.551Zm19.864,-2.657c0,-2.375 -0.493,-4.226 -1.479,-5.555c-0.986,-1.328 -2.506,-1.992 -4.559,-1.992c-1.771,0 -3.32,0.634 -4.649,1.902c-1.328,1.268 -2.153,3.149 -2.475,5.645l13.162,0Z" style="fill:#fff;fill-rule:nonzero;"/><path d="M431.312,147.344l5.736,0l0.483,5.252l0.241,0c1.047,-1.932 2.315,-3.411 3.804,-4.437c1.489,-1.027 3.019,-1.54 4.589,-1.54c1.409,0 2.536,0.201 3.381,0.604l-1.208,6.038c-0.523,-0.161 -1.006,-0.282 -1.449,-0.363c-0.442,-0.08 -0.986,-0.12 -1.63,-0.12c-1.167,0 -2.395,0.452 -3.683,1.358c-1.288,0.906 -2.395,2.486 -3.321,4.74l0,18.113l-6.943,0l0,-29.645Z" style="fill:#fff;fill-rule:nonzero;"/><path d="M455.222,151.691l-4.348,0l0,-3.744l4.589,-0.302l0.604,-8.211l4.166,0l0,8.211l7.909,0l0,4.046l-7.909,0l0,16.302c0,1.811 0.332,3.21 0.996,4.196c0.664,0.986 1.842,1.479 3.532,1.479c0.524,0 1.087,-0.08 1.691,-0.241c0.604,-0.161 1.147,-0.342 1.63,-0.543l0.966,3.743c-0.805,0.282 -1.68,0.533 -2.626,0.755c-0.946,0.221 -1.882,0.332 -2.808,0.332c-1.57,0 -2.888,-0.242 -3.955,-0.725c-1.066,-0.483 -1.932,-1.147 -2.596,-1.992c-0.664,-0.845 -1.137,-1.872 -1.419,-3.079c-0.282,-1.208 -0.422,-2.536 -0.422,-3.985l0,-16.242Z" style="fill:#fff;fill-rule:nonzero;"/><path d="M474.784,134l4.951,0l0,11.713l-0.181,6.038c1.409,-1.328 2.878,-2.465 4.408,-3.411c1.529,-0.946 3.32,-1.419 5.373,-1.419c3.1,0 5.364,0.966 6.793,2.898c1.429,1.932 2.143,4.79 2.143,8.574l0,18.596l-4.951,0l0,-17.932c0,-2.777 -0.443,-4.78 -1.328,-6.008c-0.886,-1.227 -2.295,-1.841 -4.227,-1.841c-1.529,0 -2.878,0.382 -4.045,1.147c-1.167,0.765 -2.496,1.892 -3.985,3.381l0,21.253l-4.951,0l0,-42.989Z" style="fill:#fff;fill-rule:nonzero;"/><path d="M505.456,162.378c0,-2.415 0.373,-4.579 1.117,-6.491c0.745,-1.912 1.731,-3.532 2.959,-4.86c1.227,-1.329 2.626,-2.345 4.196,-3.049c1.57,-0.705 3.2,-1.057 4.891,-1.057c1.851,0 3.512,0.322 4.981,0.966c1.469,0.644 2.697,1.57 3.683,2.777c0.986,1.208 1.741,2.657 2.264,4.348c0.523,1.69 0.785,3.582 0.785,5.675c0,1.087 -0.06,1.993 -0.181,2.717l-19.804,0c0.201,3.18 1.177,5.696 2.928,7.547c1.751,1.852 4.035,2.778 6.853,2.778c1.409,0 2.707,-0.211 3.895,-0.634c1.187,-0.423 2.324,-0.976 3.411,-1.66l1.751,3.26c-1.288,0.805 -2.717,1.509 -4.287,2.113c-1.57,0.604 -3.361,0.906 -5.374,0.906c-1.972,0 -3.814,-0.352 -5.524,-1.057c-1.711,-0.704 -3.2,-1.71 -4.468,-3.019c-1.268,-1.308 -2.264,-2.908 -2.989,-4.8c-0.725,-1.892 -1.087,-4.045 -1.087,-6.46Zm20.529,-2.234c0,-3.019 -0.634,-5.324 -1.902,-6.914c-1.268,-1.589 -3.049,-2.384 -5.344,-2.384c-1.046,0 -2.042,0.211 -2.988,0.633c-0.946,0.423 -1.802,1.027 -2.566,1.812c-0.765,0.785 -1.399,1.751 -1.902,2.898c-0.503,1.147 -0.836,2.465 -0.997,3.955l15.699,0Z" style="fill:#fff;fill-rule:nonzero;"/><path d="M537.577,147.645l4.106,0l0.423,4.227l0.181,0c1.288,-1.409 2.687,-2.586 4.196,-3.532c1.51,-0.946 3.15,-1.419 4.921,-1.419c2.254,0 4.015,0.493 5.283,1.479c1.268,0.986 2.204,2.365 2.808,4.136c1.529,-1.69 3.069,-3.049 4.619,-4.075c1.549,-1.027 3.23,-1.54 5.041,-1.54c3.019,0 5.263,0.966 6.732,2.898c1.47,1.932 2.204,4.79 2.204,8.574l0,18.596l-4.951,0l0,-17.932c0,-2.777 -0.443,-4.78 -1.328,-6.008c-0.886,-1.227 -2.254,-1.841 -4.106,-1.841c-2.214,0 -4.669,1.509 -7.366,4.528l0,21.253l-4.951,0l0,-17.932c0,-2.777 -0.443,-4.78 -1.328,-6.008c-0.886,-1.227 -2.275,-1.841 -4.166,-1.841c-2.214,0 -4.67,1.509 -7.367,4.528l0,21.253l-4.951,0l0,-29.344Z" style="fill:#fff;fill-rule:nonzero;"/><path d="M585.457,162.378c0,-2.415 0.373,-4.579 1.117,-6.491c0.745,-1.912 1.731,-3.532 2.959,-4.86c1.228,-1.329 2.626,-2.345 4.196,-3.049c1.57,-0.705 3.2,-1.057 4.891,-1.057c1.851,0 3.512,0.322 4.981,0.966c1.469,0.644 2.697,1.57 3.683,2.777c0.986,1.208 1.741,2.657 2.264,4.348c0.524,1.69 0.785,3.582 0.785,5.675c0,1.087 -0.06,1.993 -0.181,2.717l-19.804,0c0.201,3.18 1.177,5.696 2.928,7.547c1.751,1.852 4.036,2.778 6.853,2.778c1.409,0 2.707,-0.211 3.895,-0.634c1.187,-0.423 2.324,-0.976 3.411,-1.66l1.751,3.26c-1.288,0.805 -2.717,1.509 -4.287,2.113c-1.57,0.604 -3.361,0.906 -5.374,0.906c-1.972,0 -3.813,-0.352 -5.524,-1.057c-1.711,-0.704 -3.2,-1.71 -4.468,-3.019c-1.268,-1.308 -2.264,-2.908 -2.989,-4.8c-0.724,-1.892 -1.087,-4.045 -1.087,-6.46Zm20.529,-2.234c0,-3.019 -0.634,-5.324 -1.902,-6.914c-1.268,-1.589 -3.049,-2.384 -5.343,-2.384c-1.047,0 -2.043,0.211 -2.989,0.633c-0.946,0.423 -1.801,1.027 -2.566,1.812c-0.765,0.785 -1.399,1.751 -1.902,2.898c-0.503,1.147 -0.835,2.465 -0.996,3.955l15.698,0Z" style="fill:#fff;fill-rule:nonzero;"/><path d="M616.794,170.348c1.288,1.046 2.606,1.892 3.954,2.536c1.349,0.644 2.909,0.966 4.68,0.966c1.932,0 3.381,-0.443 4.347,-1.329c0.966,-0.885 1.449,-1.972 1.449,-3.26c0,-0.765 -0.201,-1.429 -0.604,-1.993c-0.402,-0.563 -0.915,-1.056 -1.539,-1.479c-0.624,-0.423 -1.339,-0.795 -2.144,-1.117c-0.805,-0.322 -1.61,-0.644 -2.415,-0.966c-1.046,-0.362 -2.093,-0.775 -3.14,-1.238c-1.046,-0.463 -1.982,-1.026 -2.807,-1.69c-0.825,-0.664 -1.5,-1.439 -2.023,-2.325c-0.523,-0.885 -0.785,-1.952 -0.785,-3.2c0,-1.167 0.232,-2.264 0.695,-3.29c0.462,-1.027 1.127,-1.912 1.992,-2.657c0.865,-0.745 1.922,-1.328 3.17,-1.751c1.248,-0.423 2.657,-0.634 4.226,-0.634c1.852,0 3.553,0.322 5.102,0.966c1.55,0.644 2.888,1.429 4.016,2.355l-2.355,3.139c-1.007,-0.764 -2.053,-1.388 -3.14,-1.871c-1.087,-0.483 -2.274,-0.725 -3.562,-0.725c-1.852,0 -3.21,0.423 -4.076,1.268c-0.865,0.845 -1.298,1.832 -1.298,2.959c0,0.684 0.181,1.278 0.544,1.781c0.362,0.503 0.845,0.946 1.449,1.328c0.603,0.382 1.298,0.725 2.083,1.027c0.785,0.301 1.6,0.613 2.445,0.935c1.047,0.403 2.103,0.826 3.17,1.268c1.066,0.443 2.022,0.997 2.868,1.661c0.845,0.664 1.539,1.479 2.083,2.445c0.543,0.966 0.815,2.133 0.815,3.502c0,1.208 -0.232,2.335 -0.694,3.381c-0.463,1.047 -1.148,1.973 -2.053,2.778c-0.906,0.805 -2.033,1.439 -3.381,1.901c-1.349,0.463 -2.889,0.695 -4.619,0.695c-2.094,0 -4.086,-0.383 -5.978,-1.147c-1.892,-0.765 -3.542,-1.731 -4.951,-2.899l2.476,-3.32Z" style="fill:#fff;fill-rule:nonzero;"/></g><path d="M180.551,20.288l0,-4.288l2.825,-2.787l-2.825,-2.787l0,-4.288l7.171,7.075l-7.171,7.075Z" style="fill:#fff;fill-opacity:0.65098;"/><path d="M7.449,5.894l0,4.288l-2.825,2.787l2.825,2.787l0,4.288l-7.171,-7.075l7.171,-7.075Z" style="fill:#fff;fill-opacity:0.65098;"/></g></svg>